<?xml version="1.0" encoding="UTF-8" standalone="no"?>
<!-- Created with Inkscape (http://www.inkscape.org/) -->

<svg
   xmlns:dc="http://purl.org/dc/elements/1.1/"
   xmlns:cc="http://creativecommons.org/ns#"
   xmlns:rdf="http://www.w3.org/1999/02/22-rdf-syntax-ns#"
   xmlns:svg="http://www.w3.org/2000/svg"
   xmlns="http://www.w3.org/2000/svg"
   xmlns:xlink="http://www.w3.org/1999/xlink"
   xmlns:sodipodi="http://sodipodi.sourceforge.net/DTD/sodipodi-0.dtd"
   xmlns:inkscape="http://www.inkscape.org/namespaces/inkscape"
   width="210mm"
   height="297mm"
   viewBox="0 0 744.09448819 1052.3622047"
   id="svg4160"
   version="1.1"
   inkscape:version="0.91 r13725"
   sodipodi:docname="skyscrapers.svg">
  <defs
     id="defs4162" />
  <sodipodi:namedview
     id="base"
     pagecolor="#888888"
     bordercolor="#666666"
     borderopacity="1.0"
     inkscape:pageopacity="0"
     inkscape:pageshadow="2"
     inkscape:zoom="0.24748737"
     inkscape:cx="2342.8086"
     inkscape:cy="486.09549"
     inkscape:document-units="px"
     inkscape:current-layer="layer1"
     showgrid="false"
     inkscape:window-width="1920"
     inkscape:window-height="1017"
     inkscape:window-x="-8"
     inkscape:window-y="-8"
     inkscape:window-maximized="1" />
  <metadata
     id="metadata4165">
    <rdf:RDF>
      <cc:Work
         rdf:about="">
        <dc:format>image/svg+xml</dc:format>
        <dc:type
           rdf:resource="http://purl.org/dc/dcmitype/StillImage" />
        <dc:title />
      </cc:Work>
    </rdf:RDF>
  </metadata>
  <g
     inkscape:label="Layer 1"
     inkscape:groupmode="layer"
     id="layer1">
    <g
       id="g4280"
       transform="matrix(1.547913,0,0,1.547913,-124.02465,-553.61208)">
      <rect
         y="957.62207"
         x="226.35828"
         height="52.779263"
         width="240.8054"
         id="rect4168"
         style="fill:#e6e6e6;fill-opacity:1" />
      <rect
         style="fill:#e6e6e6;fill-opacity:1"
         id="rect4710"
         width="168.2339"
         height="170.43304"
         x="262.64401"
         y="839.96832" />
      <rect
         y="798.18469"
         x="282.43625"
         height="212.21663"
         width="128.64946"
         id="rect4712"
         style="fill:#e6e6e6;fill-opacity:1" />
      <rect
         style="fill:#e6e6e6;fill-opacity:1"
         id="rect4714"
         width="104.45895"
         height="627.85333"
         x="294.53149"
         y="382.54797" />
      <path
         d="m 391.85487,409.97196 -19.47852,18.9465 -26.34213,6.6689 -26.14741,-7.39564 -18.94651,-19.47851 -6.66889,-26.34214 7.39563,-26.14741 19.47852,-18.9465 26.34214,-6.6689 26.14741,7.39564 18.9465,19.47851 6.66889,26.34214 z"
         inkscape:randomized="0"
         inkscape:rounded="0"
         inkscape:flatsided="true"
         sodipodi:arg2="0.79924271"
         sodipodi:arg1="0.53744332"
         sodipodi:r2="26.24729"
         sodipodi:r1="52.494579"
         sodipodi:cy="383.09781"
         sodipodi:cx="346.76096"
         sodipodi:sides="12"
         id="path4718"
         style="fill:#e6e6e6;fill-opacity:1"
         sodipodi:type="star" />
      <path
         sodipodi:nodetypes="ccccc"
         inkscape:connector-curvature="0"
         id="rect4722"
         d="m 306.11789,329.79616 81.28616,0 -5.38788,16.60348 -70.51039,0 z"
         style="fill:#e6e6e6;fill-opacity:1;stroke:none" />
      <path
         style="fill:#e6e6e6;fill-opacity:1;stroke:none"
         d="m 306.11789,330.18491 81.28616,0 -27.70911,-10.70093 -25.86793,0 z"
         id="path4725"
         inkscape:connector-curvature="0"
         sodipodi:nodetypes="ccccc" />
      <rect
         y="29.586658"
         x="351.70905"
         height="301.28162"
         width="10.99568"
         id="rect4727"
         style="fill:#e6e6e6;fill-opacity:1;stroke:none" />
      <rect
         transform="matrix(0.99881548,-0.04865841,0.04865841,0.99881548,0,0)"
         style="fill:#e6e6e6;fill-opacity:1;stroke:none"
         id="rect4729"
         width="5.9418516"
         height="142.66917"
         x="317.61679"
         y="205.68156" />
      <rect
         transform="matrix(0.98354371,-0.18067033,0.18067033,0.98354371,0,0)"
         y="290.36002"
         x="283.18237"
         height="3.8875599"
         width="29.739832"
         id="rect4733"
         style="fill:#e6e6e6;fill-opacity:1;stroke:none" />
      <rect
         style="fill:#e6e6e6;fill-opacity:1;stroke:none"
         id="rect4735"
         width="29.739832"
         height="3.8875599"
         x="281.46155"
         y="299.72784"
         transform="matrix(0.98354371,-0.18067033,0.18067033,0.98354371,0,0)" />
    </g>
    <g
       id="layer1-9"
       inkscape:label="Layer 1"
       transform="matrix(0.88913176,0,0,0.88913176,653.59484,173.12341)">
      <rect
         style="fill:#e6e6e6;fill-opacity:1;stroke:none"
         id="rect4145"
         width="244.14"
         height="708.96857"
         x="232.51788"
         y="232.71182" />
      <rect
         y="246.99754"
         x="226.8035"
         height="694.68286"
         width="255.56857"
         id="rect4136"
         style="fill:#e6e6e6;fill-opacity:1;stroke:none" />
      <rect
         y="213.80862"
         x="238.23216"
         height="727.87177"
         width="232.71143"
         id="rect4138"
         style="fill:#e6e6e6;fill-opacity:1;stroke:none" />
      <rect
         style="fill:#e6e6e6;fill-opacity:1;stroke:none"
         id="rect4140"
         width="214.52869"
         height="733.93268"
         x="247.32353"
         y="207.74771" />
      <path
         sodipodi:nodetypes="ccccc"
         inkscape:connector-curvature="0"
         id="rect4142"
         d="m 344.32353,142.4084 20.52869,0 97,66.22185 -214.52869,0 z"
         style="fill:#e6e6e6;fill-opacity:1;stroke:none" />
    </g>
    <g
       id="layer1-8"
       inkscape:label="Layer 1"
       transform="matrix(1.1167725,0,0,1.1167725,397.04205,-122.60629)">
      <rect
         y="293.59073"
         x="165.25597"
         height="720.94684"
         width="255.56857"
         id="rect4136-0"
         style="fill:#e6e6e6;fill-opacity:1;stroke:none" />
      <rect
         style="fill:#e6e6e6;fill-opacity:1;stroke:none"
         id="rect4138-6"
         width="172.70706"
         height="142.18466"
         x="165.25597"
         y="182.35289" />
      <rect
         y="206.51244"
         x="203.82739"
         height="40.047962"
         width="161.28285"
         id="rect4140-7"
         style="fill:#e6e6e6;fill-opacity:1;stroke:none" />
      <rect
         style="fill:#e6e6e6;fill-opacity:1;stroke:none"
         id="rect4142-8"
         width="195.56856"
         height="47.6241"
         x="203.82739"
         y="186.07915" />
      <rect
         y="149.47728"
         x="165.25597"
         height="80.55304"
         width="255.16756"
         id="rect4144"
         style="fill:#e6e6e6;fill-opacity:1;stroke:none" />
      <rect
         style="fill:#e6e6e6;fill-opacity:1;stroke:none"
         id="rect4146"
         width="115.66245"
         height="4.1359277"
         x="349.10373"
         y="293.59073" />
    </g>
    <g
       id="layer1-2"
       inkscape:label="Layer 1"
       transform="translate(838.33056,-4.1362328)">
      <path
         sodipodi:nodetypes="ccccc"
         inkscape:connector-curvature="0"
         id="rect4136-6"
         d="m 229.90573,383.59073 189.85428,0 65.71429,630.94687 -255.56857,0 z"
         style="fill:#cccccc;fill-opacity:1;stroke:none" />
      <path
         style="fill:#cccccc;fill-opacity:1;stroke:none"
         d="m 229.90573,410.25189 189.85428,0 60.26523,-103.98337 -250.11951,0.33612 z"
         id="path4142"
         inkscape:connector-curvature="0"
         sodipodi:nodetypes="ccccc" />
      <path
         style="fill:#e6e6e6;fill-opacity:1;stroke:none"
         d="m 229.90573,383.59073 171.28252,0 59.28605,630.94687 -230.56857,0 z"
         id="path4144"
         inkscape:connector-curvature="0"
         sodipodi:nodetypes="ccccc" />
      <path
         sodipodi:nodetypes="ccccc"
         inkscape:connector-curvature="0"
         id="path4146"
         d="m 229.90573,436.76839 157.09744,0 80.3876,-130.16375 -237.48504,0 z"
         style="fill:#e6e6e6;fill-opacity:1;stroke:none" />
    </g>
    <g
       id="layer1-1"
       inkscape:label="Layer 1"
       transform="translate(1756.3695,-18.278333)">
      <path
         sodipodi:nodetypes="ccccc"
         inkscape:connector-curvature="0"
         id="rect4136-9"
         d="m 292.54623,116.04762 116.48191,0 c 218.41824,453.49829 67.1235,673.65897 155.43586,912.63208 l -271.91777,0 z"
         style="fill:#e6e6e6;fill-opacity:1;stroke:none" />
      <path
         sodipodi:nodetypes="ccccc"
         inkscape:connector-curvature="0"
         id="rect4140-9"
         d="m 262.41263,43.139586 170.46136,0 C 406.08235,75.749267 350.95391,61.413765 409.3194,122.40916 l -115.75214,1.84149 C 312.00623,73.184231 307.01092,68.991107 262.41263,43.139586 Z"
         style="fill:#e6e6e6;fill-opacity:1;stroke:none" />
    </g>
    <g
       id="layer1-4"
       inkscape:label="Layer 1"
       transform="translate(1493.0582,-7.6156649)">
      <rect
         transform="matrix(1,0,-0.17477371,0.98460863,0,0)"
         y="75.373207"
         x="394.36307"
         height="958.55743"
         width="158.61946"
         id="rect4136-1"
         style="fill:#e6e6e6;fill-opacity:1;stroke:none" />
      <path
         inkscape:connector-curvature="0"
         id="rect4139"
         d="m 167.72737,377.58032 143.44167,0 0,640.43668 -143.44167,0 z"
         style="fill:#e6e6e6;fill-opacity:1;stroke:none" />
      <rect
         style="fill:#e6e6e6;fill-opacity:1;stroke:none"
         id="rect4142-7"
         width="38.748016"
         height="961.64282"
         x="-168.38338"
         y="69.440346"
         transform="matrix(-1,0,0.19172038,0.98144959,0,0)" />
      <path
         style="fill:#e6e6e6;fill-opacity:1;stroke:none"
         d="m 452.59038,377.58032 46.46703,0 0,640.43668 -46.46703,0 z"
         id="path4144-6"
         inkscape:connector-curvature="0" />
      <rect
         y="810.93359"
         x="362.85715"
         height="20"
         width="125.71429"
         id="rect4146-3"
         style="fill:#e6e6e6;fill-opacity:1;stroke:none" />
    </g>
    <g
       id="layer1-95"
       inkscape:label="Layer 1"
       transform="translate(1115.9894,-7.6156328)">
      <path
         sodipodi:nodetypes="sssssss"
         inkscape:connector-curvature="0"
         id="path4138"
         d="m 469.16898,818.22019 c -53.29155,96.28021 -71.92065,99.49917 -104.88327,99.49917 -32.96262,10e-6 -61.74233,1.73684 -104.88327,-99.49916 C 217.42663,719.71834 198.93093,298.49038 255.40243,163.12425 299.3873,57.689447 331.32309,23.790761 364.28571,23.790771 c 32.96262,0 63.11004,34.662698 108.88327,139.333489 59.17736,135.32234 49.21172,558.95996 -4,655.09593 z"
         style="fill:#ececec;fill-opacity:1;stroke:none" />
      <path
         inkscape:connector-curvature="0"
         id="path4143"
         d="m 224.2553,940.60036 282.02547,0 0,12.91664 -282.02547,0 z"
         style="fill:#e6e6e6;fill-opacity:1;stroke:none" />
      <path
         style="fill:#e6e6e6;fill-opacity:1;stroke:none"
         d="m 224.2553,892.60036 282.02547,38.00004 0,12.9166 -282.02547,-38 z"
         id="path4145"
         inkscape:connector-curvature="0" />
      <path
         inkscape:connector-curvature="0"
         id="path4149"
         d="m 506.28077,892.60036 -282.02547,38.00004 0,12.9166 282.02547,-38 z"
         style="fill:#e6e6e6;fill-opacity:1;stroke:none" />
      <path
         style="fill:#e6e6e6;fill-opacity:1;stroke:none"
         d="m 224.2553,984.60036 282.02547,0 0,12.91664 -282.02547,0 z"
         id="path4151"
         inkscape:connector-curvature="0" />
      <path
         inkscape:connector-curvature="0"
         id="path4153"
         d="m 355.59518,879.60036 13.02547,0 0,117.91664 -13.02547,0 z"
         style="fill:#e6e6e6;fill-opacity:1;stroke:none" />
      <g
         id="g4172">
        <path
           inkscape:connector-curvature="0"
           id="path4155"
           d="m 484.2553,-26.726767 27.02547,0 0,1044.743767 -27.02547,0 z"
           style="fill:#e6e6e6;fill-opacity:1;stroke:none" />
        <path
           style="fill:#e6e6e6;fill-opacity:1;stroke:none"
           d="m 220.2553,-26.726767 27.02547,0 0,1044.743767 -27.02547,0 z"
           id="rect4139-6"
           inkscape:connector-curvature="0" />
      </g>
      <path
         style="fill:#e6e6e6;fill-opacity:1;stroke:none"
         d="m 220.2553,-19.726767 283.70523,0 0,18.578545 -283.70523,0 z"
         id="path4157"
         inkscape:connector-curvature="0" />
      <path
         inkscape:connector-curvature="0"
         id="path4176"
         d="m 213.91215,37.385869 c 101.57292,8.01839 203.52512,8.94174 306.00466,0 l 0,30.60163 c -101.55425,2.32433 -203.54325,2.38953 -306.00466,0 z"
         style="fill:#cccccc;fill-opacity:1;stroke:none"
         sodipodi:nodetypes="ccccc" />
      <use
         x="0"
         y="0"
         xlink:href="#path4176"
         id="use4188"
         transform="translate(0,430.39223)"
         width="100%"
         height="100%" />
      <use
         height="100%"
         width="100%"
         transform="translate(0,753.18632)"
         id="use4190"
         xlink:href="#path4176"
         y="0"
         x="0" />
      <use
         x="0"
         y="0"
         xlink:href="#path4176"
         id="use4192"
         transform="translate(0,107.59801)"
         width="100%"
         height="100%" />
      <use
         height="100%"
         width="100%"
         transform="translate(0,645.58827)"
         id="use4194"
         xlink:href="#path4176"
         y="0"
         x="0" />
      <use
         height="100%"
         width="100%"
         transform="translate(0,215.19616)"
         id="use4226"
         xlink:href="#path4176"
         y="0"
         x="0" />
      <use
         x="0"
         y="0"
         xlink:href="#path4176"
         id="use4244"
         transform="translate(0,537.99026)"
         width="100%"
         height="100%" />
      <use
         x="0"
         y="0"
         xlink:href="#path4176"
         id="use4246"
         transform="translate(0,322.79419)"
         width="100%"
         height="100%" />
      <path
         inkscape:connector-curvature="0"
         id="path4310"
         d="m 354.60559,-19.726767 15.00465,0 0,934.784877 -15.00465,0 z"
         style="fill:#b3b3b3;fill-opacity:1;stroke:none" />
    </g>
    <g
       transform="matrix(0.88913176,0,0,0.88913176,2116.2958,173.12341)"
       inkscape:label="Layer 1"
       id="g4377">
      <rect
         y="232.71182"
         x="232.51788"
         height="708.96857"
         width="244.14"
         id="rect4379"
         style="fill:#e6e6e6;fill-opacity:1;stroke:none" />
      <rect
         style="fill:#e6e6e6;fill-opacity:1;stroke:none"
         id="rect4381"
         width="255.56857"
         height="694.68286"
         x="226.8035"
         y="246.99754" />
      <rect
         style="fill:#e6e6e6;fill-opacity:1;stroke:none"
         id="rect4383"
         width="232.71143"
         height="727.87177"
         x="238.23216"
         y="213.80862" />
      <rect
         y="207.74771"
         x="247.32353"
         height="733.93268"
         width="214.52869"
         id="rect4385"
         style="fill:#e6e6e6;fill-opacity:1;stroke:none" />
      <path
         style="fill:#e6e6e6;fill-opacity:1;stroke:none"
         d="m 344.32353,142.4084 20.52869,0 97,66.22185 -214.52869,0 z"
         id="path4387"
         inkscape:connector-curvature="0"
         sodipodi:nodetypes="ccccc" />
    </g>
    <g
       transform="matrix(1.1167725,0,0,1.1167725,2352.6974,-122.60629)"
       inkscape:label="Layer 1"
       id="g4389">
      <rect
         style="fill:#e6e6e6;fill-opacity:1;stroke:none"
         id="rect4391"
         width="255.56857"
         height="720.94684"
         x="165.25597"
         y="293.59073" />
      <rect
         y="182.35289"
         x="165.25597"
         height="142.18466"
         width="172.70706"
         id="rect4393"
         style="fill:#e6e6e6;fill-opacity:1;stroke:none" />
      <rect
         style="fill:#e6e6e6;fill-opacity:1;stroke:none"
         id="rect4395"
         width="161.28285"
         height="40.047962"
         x="203.82739"
         y="206.51244" />
      <rect
         y="186.07915"
         x="203.82739"
         height="47.6241"
         width="195.56856"
         id="rect4397"
         style="fill:#e6e6e6;fill-opacity:1;stroke:none" />
      <rect
         style="fill:#e6e6e6;fill-opacity:1;stroke:none"
         id="rect4399"
         width="255.16756"
         height="80.55304"
         x="165.25597"
         y="149.47728" />
      <rect
         y="293.59073"
         x="349.10373"
         height="4.1359277"
         width="115.66245"
         id="rect4401"
         style="fill:#e6e6e6;fill-opacity:1;stroke:none" />
    </g>
    <g
       transform="translate(2583.8742,-4.1362328)"
       inkscape:label="Layer 1"
       id="g4403">
      <path
         style="fill:#cccccc;fill-opacity:1;stroke:none"
         d="m 229.90573,383.59073 189.85428,0 65.71429,630.94687 -255.56857,0 z"
         id="path4405"
         inkscape:connector-curvature="0"
         sodipodi:nodetypes="ccccc" />
      <path
         sodipodi:nodetypes="ccccc"
         inkscape:connector-curvature="0"
         id="path4407"
         d="m 229.90573,410.25189 189.85428,0 60.26523,-103.98337 -250.11951,0.33612 z"
         style="fill:#cccccc;fill-opacity:1;stroke:none" />
      <path
         sodipodi:nodetypes="ccccc"
         inkscape:connector-curvature="0"
         id="path4409"
         d="m 229.90573,383.59073 171.28252,0 59.28605,630.94687 -230.56857,0 z"
         style="fill:#e6e6e6;fill-opacity:1;stroke:none" />
      <path
         style="fill:#e6e6e6;fill-opacity:1;stroke:none"
         d="m 229.90573,436.76839 157.09744,0 80.3876,-130.16375 -237.48504,0 z"
         id="path4411"
         inkscape:connector-curvature="0"
         sodipodi:nodetypes="ccccc" />
    </g>
    <g
       transform="matrix(1.547913,0,0,1.547913,2672.0776,-553.61208)"
       id="g4413">
      <rect
         style="fill:#e6e6e6;fill-opacity:1"
         id="rect4415"
         width="240.8054"
         height="52.779263"
         x="226.35828"
         y="957.62207" />
      <rect
         y="839.96832"
         x="262.64401"
         height="170.43304"
         width="168.2339"
         id="rect4417"
         style="fill:#e6e6e6;fill-opacity:1" />
      <rect
         style="fill:#e6e6e6;fill-opacity:1"
         id="rect4419"
         width="128.64946"
         height="212.21663"
         x="282.43625"
         y="798.18469" />
      <rect
         y="382.54797"
         x="294.53149"
         height="627.85333"
         width="104.45895"
         id="rect4421"
         style="fill:#e6e6e6;fill-opacity:1" />
      <path
         sodipodi:type="star"
         style="fill:#e6e6e6;fill-opacity:1"
         id="path4423"
         sodipodi:sides="12"
         sodipodi:cx="346.76096"
         sodipodi:cy="383.09781"
         sodipodi:r1="52.494579"
         sodipodi:r2="26.24729"
         sodipodi:arg1="0.53744332"
         sodipodi:arg2="0.79924271"
         inkscape:flatsided="true"
         inkscape:rounded="0"
         inkscape:randomized="0"
         d="m 391.85487,409.97196 -19.47852,18.9465 -26.34213,6.6689 -26.14741,-7.39564 -18.94651,-19.47851 -6.66889,-26.34214 7.39563,-26.14741 19.47852,-18.9465 26.34214,-6.6689 26.14741,7.39564 18.9465,19.47851 6.66889,26.34214 z" />
      <path
         style="fill:#e6e6e6;fill-opacity:1;stroke:none"
         d="m 306.11789,329.79616 81.28616,0 -5.38788,16.60348 -70.51039,0 z"
         id="path4425"
         inkscape:connector-curvature="0"
         sodipodi:nodetypes="ccccc" />
      <path
         sodipodi:nodetypes="ccccc"
         inkscape:connector-curvature="0"
         id="path4427"
         d="m 306.11789,330.18491 81.28616,0 -27.70911,-10.70093 -25.86793,0 z"
         style="fill:#e6e6e6;fill-opacity:1;stroke:none" />
      <rect
         style="fill:#e6e6e6;fill-opacity:1;stroke:none"
         id="rect4429"
         width="10.99568"
         height="301.28162"
         x="351.70905"
         y="29.586658" />
      <rect
         y="205.68156"
         x="317.61679"
         height="142.66917"
         width="5.9418516"
         id="rect4431"
         style="fill:#e6e6e6;fill-opacity:1;stroke:none"
         transform="matrix(0.99881548,-0.04865841,0.04865841,0.99881548,0,0)" />
      <rect
         style="fill:#e6e6e6;fill-opacity:1;stroke:none"
         id="rect4433"
         width="29.739832"
         height="3.8875599"
         x="283.18237"
         y="290.36002"
         transform="matrix(0.98354371,-0.18067033,0.18067033,0.98354371,0,0)" />
      <rect
         transform="matrix(0.98354371,-0.18067033,0.18067033,0.98354371,0,0)"
         y="299.72784"
         x="281.46155"
         height="3.8875599"
         width="29.739832"
         id="rect4435"
         style="fill:#e6e6e6;fill-opacity:1;stroke:none" />
    </g>
    <g
       transform="translate(3214.3582,-7.6156649)"
       inkscape:label="Layer 1"
       id="g4437">
      <rect
         style="fill:#e6e6e6;fill-opacity:1;stroke:none"
         id="rect4439"
         width="158.61946"
         height="958.55743"
         x="394.36307"
         y="75.373207"
         transform="matrix(1,0,-0.17477371,0.98460863,0,0)" />
      <path
         style="fill:#e6e6e6;fill-opacity:1;stroke:none"
         d="m 167.72737,377.58032 143.44167,0 0,640.43668 -143.44167,0 z"
         id="path4441"
         inkscape:connector-curvature="0" />
      <rect
         transform="matrix(-1,0,0.19172038,0.98144959,0,0)"
         y="69.440346"
         x="-168.38338"
         height="961.64282"
         width="38.748016"
         id="rect4443"
         style="fill:#e6e6e6;fill-opacity:1;stroke:none" />
      <path
         inkscape:connector-curvature="0"
         id="path4445"
         d="m 452.59038,377.58032 46.46703,0 0,640.43668 -46.46703,0 z"
         style="fill:#e6e6e6;fill-opacity:1;stroke:none" />
      <rect
         style="fill:#e6e6e6;fill-opacity:1;stroke:none"
         id="rect4447"
         width="125.71429"
         height="20"
         x="362.85715"
         y="810.93359" />
    </g>
    <g
       transform="matrix(1.1167725,0,0,1.1167725,3564.8805,-122.60629)"
       inkscape:label="Layer 1"
       id="g4449">
      <rect
         style="fill:#e6e6e6;fill-opacity:1;stroke:none"
         id="rect4451"
         width="255.56857"
         height="720.94684"
         x="165.25597"
         y="293.59073" />
      <rect
         y="182.35289"
         x="165.25597"
         height="142.18466"
         width="172.70706"
         id="rect4453"
         style="fill:#e6e6e6;fill-opacity:1;stroke:none" />
      <rect
         style="fill:#e6e6e6;fill-opacity:1;stroke:none"
         id="rect4455"
         width="161.28285"
         height="40.047962"
         x="203.82739"
         y="206.51244" />
      <rect
         y="186.07915"
         x="203.82739"
         height="47.6241"
         width="195.56856"
         id="rect4457"
         style="fill:#e6e6e6;fill-opacity:1;stroke:none" />
      <rect
         style="fill:#e6e6e6;fill-opacity:1;stroke:none"
         id="rect4459"
         width="255.16756"
         height="80.55304"
         x="165.25597"
         y="149.47728" />
      <rect
         y="293.59073"
         x="349.10373"
         height="4.1359277"
         width="115.66245"
         id="rect4461"
         style="fill:#e6e6e6;fill-opacity:1;stroke:none" />
    </g>
  </g>
</svg>
